<?xml version="1.0" encoding="UTF-8"?>
<svg id="_レイヤー_2" data-name="レイヤー 2" xmlns="http://www.w3.org/2000/svg" viewBox="0 0 56 60">
  <defs>
    <style>
      .cls-1 {
        fill: none;
      }

      .cls-1, .cls-2 {
        stroke-width: 0px;
      }

      .cls-2 {
        fill: #111;
      }
    </style>
  </defs>
  <g id="_レイヤー_1-2" data-name="レイヤー 1">
    <rect id="frame" class="cls-1" width="56" height="60"/>
    <g>
      <path class="cls-2" d="M8.83,24.24c-.05.9-.05,1.8,0,2.7.02,1.23.27,2.44.72,3.58.72,1.35,2.13,2.2,3.66,2.2,1.36.03,2.64-.63,3.4-1.76.64-1.23.91-2.62.79-4l-.06-25.06h7.15v25.06c.12,2.52-.41,5.02-1.55,7.27-1.75,3.03-4.91,4.55-9.48,4.54-4.57,0-7.64-1.23-9.19-3.67-1.56-2.45-2.34-5.79-2.34-10v-.83l6.9-.03Z"/>
      <path class="cls-2" d="M39.04,17.1h-7v-6.42h7v6.42ZM31.74,20.63h7.51v17.74h-7.51v-17.74Z"/>
      <path class="cls-2" d="M40.16,58.08v-6.12c2.17.06,4.22-.96,5.48-2.72.79-1.08,1.24-2.37,1.31-3.71l-.21-24.9h7s.81,26.54-.12,29.57c-.58,2.18-1.83,4.12-3.57,5.54-2.94,2.36-5.56,2.45-9.89,2.34ZM53.9,17.08h-7v-6.4h7v6.4Z"/>
    </g>
  </g>
</svg>